<?xml version="1.0" encoding="UTF-8" standalone="no"?>
<!-- Created with Inkscape (http://www.inkscape.org/) -->

<svg
   width="52.955406mm"
   height="52.593746mm"
   viewBox="0 0 52.955406 52.593746"
   version="1.1"
   id="svg7565"
   xmlns:inkscape="http://www.inkscape.org/namespaces/inkscape"
   xmlns:sodipodi="http://sodipodi.sourceforge.net/DTD/sodipodi-0.dtd"
   xmlns="http://www.w3.org/2000/svg"
   xmlns:svg="http://www.w3.org/2000/svg">
  <sodipodi:namedview
     id="namedview7567"
     pagecolor="#ffffff"
     bordercolor="#000000"
     borderopacity="0.25"
     inkscape:showpageshadow="2"
     inkscape:pageopacity="0.0"
     inkscape:pagecheckerboard="0"
     inkscape:deskcolor="#d1d1d1"
     inkscape:document-units="mm"
     showgrid="false" />
  <defs
     id="defs7562">
    <clipPath
       clipPathUnits="userSpaceOnUse"
       id="clipPath6057">
      <rect
         style="opacity:0.172308;fill:#000000;stroke-width:0.856997"
         id="rect6059"
         width="202.70702"
         height="198.88235"
         x="1340.5436"
         y="5.73699" />
    </clipPath>
  </defs>
  <g
     inkscape:label="Layer 1"
     inkscape:groupmode="layer"
     id="layer1"
     transform="translate(-78.604924,-122.20313)">
    <g
       id="Layer_2"
       clip-path="url(#clipPath6057)"
       inkscape:export-filename="Layer_2.svg"
       inkscape:export-xdpi="96"
       inkscape:export-ydpi="96"
       transform="matrix(0.26458333,0,0,0.26458333,-276.08056,120.65801)">
	<g
   id="g15">
		<g
   id="g13">
			<polygon
   points="180.16,457.27 180.16,451.15 174.04,451.15 174.04,445.03 186.27,445.03 186.27,426.68 167.92,426.68 167.92,457.27 "
   id="polygon7" />

			<polygon
   points="388.88,438.92 388.88,426.68 370.53,426.68 370.53,445.03 382.76,445.03 382.76,438.92 "
   id="polygon9" />

			<path
   d="m 414.69,470.91 0.63,-42.27 -19.56,-20.82 -254.55,-3.15 v 6.62 44.47 l 6.94,7.25 v 23.34 l 15.14,14.51 v 33.43 l 13.56,14.19 h 29.33 16.72 l 201.56,2.84 v -68.13 z m -56.4,-50.35 H 395 v 6.12 h 6.12 v 18.35 h -12.23 v 6.12 H 395 v 6.12 h 6.12 v 6.12 h -18.35 v -6.12 h -6.12 v -6.12 h -6.12 v 12.23 H 358.3 v -42.82 z m -101.3,0 h 42.82 v 6.12 h -30.59 v 12.23 h 24.47 v 6.12 h -24.47 v 12.23 h 30.59 v 6.12 h -42.82 z m -95.19,42.83 v -6.12 h -6.12 v -30.59 h 6.12 v -6.12 h 30.59 v 6.12 h 6.12 v 24.47 h -6.12 v 6.12 h 6.12 v 6.12 h -6.12 v -6.12 h -6.12 v 6.12 z m 50.33,25.38 h -15.81 v 46.68 H 180.51 V 488.77 H 164.7 v -7.78 h 47.43 z m 0.32,-25.38 v -6.12 h -6.12 v -36.7 h 12.23 v 36.7 h 18.35 v -36.7 h 12.23 v 36.7 h -6.12 v 6.12 z m 69.08,25.38 H 242 v 15.56 h 31.62 v 7.78 H 242 v 15.56 h 39.52 v 7.78 H 226.2 v -54.46 h 55.33 z m 65.45,7.78 h -15.81 v -7.78 h -15.81 v 7.78 h -7.9 v 23.34 h 7.9 v 7.78 h 15.81 v -7.78 h 15.81 v 7.78 h -7.9 v 7.78 h -31.62 v -7.78 h -7.9 v -7.78 h -7.9 v -23.34 h 7.9 v -7.78 h 7.9 v -7.78 h 31.62 v 7.78 h 7.9 z m 3.48,-69.87 h -30.59 v 12.23 h 24.47 v 6.12 h -24.47 v 12.23 h 30.59 v 6.12 h -42.82 v -42.82 h 42.82 z m 61.97,108.77 h -15.81 v -23.34 h -23.71 v 23.34 H 357.1 v -54.46 h 15.81 v 23.34 h 23.71 v -23.34 h 15.81 z"
   id="path11" />

		</g>

	</g>

	<g
   id="g115">
		<path
   d="m 1536.12,249.44 -15.29,-25.88 c -1.1,-1.86 -3.03,-3.11 -5.17,-3.34 -81.45,-8.71 -81.54,-8.71 -81.93,-8.69 l -85.33,4.19 c -2.47,0.12 -4.49,2.08 -4.69,4.56 l -12.3,153.91 c -0.25,3.06 1.83,5.83 4.82,6.44 l 7.57,1.54 v 17.35 c 0,3.25 2.29,6.09 5.44,6.77 l 87.81,18.72 c 0.47,0.1 0.94,0.15 1.42,0.15 0.42,0 0.84,-0.04 1.26,-0.12 l 91.75,-17.25 c 3.25,-0.61 5.61,-3.47 5.61,-6.8 V 252.97 c -0.01,-1.24 -0.34,-2.46 -0.97,-3.53 z m -98.74,126.45 6.17,3.09 c 0.84,0.42 1.38,1.26 1.41,2.19 l 1.32,35.36 -6.36,1.2 -1.66,-27.9 c -0.1,-1.63 -1.45,-2.91 -3.08,-2.91 l -10.35,-0.03 c 0.35,-0.54 0.58,-1.15 0.62,-1.8 l 11.3,-165.23 c 0.02,-0.29 0.01,-0.58 -0.04,-0.87 1.92,0.2 4.63,0.49 7.93,0.84 l -9.67,151.9 c -0.09,1.75 0.85,3.38 2.41,4.16 z m -15.66,10.99 v 0.02 c -0.22,0.02 -0.44,0.03 -0.66,-0.01 l -82.3,-14.34 c -0.02,0 -0.04,-0.01 -0.05,-0.01 l 1.58,-19.78 2.52,0.25 82.41,9.45 -1.54,22.51 c -0.04,0.58 -0.32,1.1 -0.8,1.48 -0.29,0.23 -0.64,0.37 -1.01,0.44 z m 13.26,-167.15 -9.12,133.34 -84.89,-8.88 9.71,-121.43 83.13,-4.08 c 0.21,0.02 0.56,0.06 1.03,0.11 0.12,0.3 0.16,0.62 0.14,0.94 z m -9.24,135.13 -0.4,5.81 -80.85,-9.27 0.48,-4.82 -4.16,-0.41 0.01,-0.18 z m -74.8,44.49 v -17.36 c 0,-2.64 -1.5,-4.99 -3.74,-6.16 l 73.56,12.82 c 0.24,0.04 0.47,0.06 0.71,0.06 0.19,0 0.37,-0.02 0.56,-0.05 l 13.16,0.04 c 0.69,0 1.26,0.54 1.3,1.23 l 1.66,28 z m 178.99,1.46 -81.88,15.4 -1.31,-35.09 c -0.06,-1.59 -0.98,-3.01 -2.39,-3.72 l -6.17,-3.09 c -0.92,-0.46 -1.47,-1.42 -1.41,-2.45 l 9.66,-151.82 c 17.54,1.87 48.98,5.23 68.3,7.29 l 15.19,25.71 v 147.77 z"
   id="path17" />

		<path
   d="m 1423.62,234.38 -63.01,2.95 c -2.56,0.12 -4.64,2.12 -4.85,4.67 l -6.52,77.61 c -0.24,2.8 1.84,5.27 4.65,5.51 l 65.39,5.72 c 0.86,0.08 1.61,-0.58 1.65,-1.45 l 4,-87.42 0.27,-6 c 0.05,-0.89 -0.68,-1.63 -1.58,-1.59 z m -3.7,85.86 -61.21,-3.47 c -0.77,-10.15 -0.98,-22.18 0.17,-35.61 1.12,-13.11 3.29,-24.67 5.7,-34.38 l 58.36,-3.19 z"
   id="path19" />

		<polygon
   points="1466.6,308 1475.32,304.25 1484.37,325.77 1480.01,288.55 1471.96,294.92 1464.25,275.8 1456.2,281.92 "
   id="polygon21" />

		<path
   d="m 1504.52,331.77 c -8.01,-3.05 -17.25,0.36 -21.47,7.95 l 0.04,0.02 c -1.41,0.38 -2.47,1.67 -2.53,3.23 -0.28,-0.08 -0.57,-0.13 -0.88,-0.13 -1.88,0 -3.41,1.57 -3.41,3.51 0,1.8 1.32,3.26 3.02,3.47 -0.03,0.2 -0.06,0.4 -0.06,0.6 0,1.94 1.53,3.51 3.41,3.51 0.15,0 0.29,-0.03 0.44,-0.05 0.58,1.08 1.69,1.82 2.98,1.82 1.09,0 2.05,-0.54 2.68,-1.35 0.57,0.45 1.28,0.73 2.06,0.73 1.88,0 3.41,-1.57 3.41,-3.51 0,-0.09 -0.02,-0.18 -0.03,-0.26 1.24,-0.52 2.12,-1.78 2.12,-3.24 0,-0.47 -0.09,-0.91 -0.26,-1.31 1.01,-0.67 2.29,-0.79 3.38,-0.26 1.14,0.56 1.85,1.77 1.86,3.09 -1.33,0.39 -2.35,1.59 -2.47,3.08 -0.15,1.79 1.05,3.36 2.73,3.7 -0.05,0.19 -0.09,0.39 -0.11,0.6 -0.16,1.93 1.24,3.62 3.12,3.77 0.15,0.01 0.29,0 0.44,-0.01 0.49,1.12 1.54,1.95 2.82,2.06 1.09,0.09 2.09,-0.37 2.78,-1.13 0.54,0.49 1.22,0.83 1.99,0.89 1.88,0.15 3.53,-1.29 3.69,-3.22 0.01,-0.09 -0.01,-0.18 0,-0.27 1.28,-0.42 2.25,-1.6 2.37,-3.06 0.14,-1.72 -0.96,-3.24 -2.53,-3.66 -0.06,-0.6 -0.27,-1.16 -0.58,-1.63 1.15,-8.13 -3.43,-16.05 -11.01,-18.94 z m -1.17,17.87 c -0.1,-0.03 -0.2,-0.06 -0.29,-0.09 -0.02,-1.98 -1.11,-3.81 -2.86,-4.67 -1.69,-0.83 -3.69,-0.62 -5.22,0.43 -0.43,-0.35 -0.95,-0.6 -1.51,-0.7 -0.08,-0.45 -0.25,-0.86 -0.47,-1.23 2.19,-2.2 5.52,-2.9 8.3,-1.65 2.12,0.95 3.62,2.86 4.13,5.11 -1.1,0.48 -1.93,1.52 -2.08,2.8 z m 6.37,-1.26 c -0.5,-0.94 -1.41,-1.62 -2.5,-1.78 -0.6,-2.86 -2.5,-5.29 -5.19,-6.5 -3.48,-1.56 -7.64,-0.71 -10.35,2.04 -0.47,-0.25 -1,-0.4 -1.57,-0.4 -0.33,0 -0.64,0.07 -0.94,0.16 2.85,-4.05 8.14,-5.85 12.86,-4.29 4.67,1.54 7.77,5.9 7.78,10.77 -0.03,0 -0.06,0 -0.09,0 z m 4.13,1.02 c -0.28,-0.1 -0.57,-0.18 -0.88,-0.21 -0.36,-0.03 -0.72,0.02 -1.05,0.1 -0.11,-0.1 -0.22,-0.19 -0.34,-0.27 0.27,-5.89 -3.38,-11.25 -8.98,-13.1 -5.69,-1.88 -11.85,0.31 -15.12,5.31 -0.16,-0.02 -0.32,-0.04 -0.49,-0.04 -0.06,0 -0.12,0.02 -0.19,0.02 -0.41,-0.63 -1.01,-1.12 -1.72,-1.38 3.98,-6.26 11.89,-9.01 18.8,-6.38 6.49,2.46 10.52,9.03 9.97,15.95 z"
   id="path23" />

		<path
   d="m 1511.88,258.58 c -3.03,-1.99 -7.2,-1.71 -10.17,0.77 v 0 c -1.76,-3.45 -5.49,-5.34 -9.06,-4.7 -4.11,0.74 -7.2,4.71 -6.88,9.22 0,0 -1.34,6.03 10.73,20.95 v 0.01 c 0,0 0,0 0.01,0 0,0 0,0 0,0 v -0.01 c 16.95,-9 18.08,-15.07 18.08,-15.07 2.07,-4.02 0.78,-8.88 -2.71,-11.17 z"
   id="path25" />

		<polygon
   points="1452.89,388.78 1457.88,387.95 1457.84,385.24 1452.85,386.06 "
   id="polygon27" />

		<polygon
   points="1459.65,387.6 1464.64,386.78 1464.6,384.06 1459.61,384.89 "
   id="polygon29" />

		<polygon
   points="1466.41,386.48 1471.4,385.65 1471.37,382.93 1466.37,383.76 "
   id="polygon31" />

		<polygon
   points="1473.17,385.38 1478.16,384.55 1478.13,381.83 1473.13,382.66 "
   id="polygon33" />

		<polygon
   points="1479.93,384.26 1484.93,383.43 1484.89,380.71 1479.9,381.54 "
   id="polygon35" />

		<polygon
   points="1486.69,383.15 1491.69,382.32 1491.65,379.6 1486.66,380.43 "
   id="polygon37" />

		<polygon
   points="1493.45,381.95 1498.45,381.12 1498.41,378.4 1493.42,379.23 "
   id="polygon39" />

		<polygon
   points="1500.22,380.8 1505.21,379.97 1505.17,377.25 1500.18,378.08 "
   id="polygon41" />

		<polygon
   points="1506.98,379.62 1511.97,378.79 1511.94,376.07 1506.94,376.9 "
   id="polygon43" />

		<polygon
   points="1518.74,377.58 1518.7,374.86 1513.71,375.69 1513.74,378.4 "
   id="polygon45" />

		<polygon
   points="1525.46,373.7 1520.47,374.53 1520.5,377.25 1525.5,376.42 "
   id="polygon47" />

		<polygon
   points="1452.89,394.75 1457.88,393.92 1457.84,391.2 1452.85,392.03 "
   id="polygon49" />

		<polygon
   points="1459.65,393.57 1464.64,392.74 1464.6,390.02 1459.61,390.85 "
   id="polygon51" />

		<polygon
   points="1466.41,392.45 1471.4,391.62 1471.37,388.9 1466.37,389.73 "
   id="polygon53" />

		<polygon
   points="1473.17,391.34 1478.16,390.51 1478.13,387.79 1473.13,388.62 "
   id="polygon55" />

		<polygon
   points="1479.93,390.22 1484.93,389.39 1484.89,386.67 1479.9,387.5 "
   id="polygon57" />

		<polygon
   points="1486.69,389.12 1491.69,388.29 1491.65,385.57 1486.66,386.4 "
   id="polygon59" />

		<polygon
   points="1493.45,387.92 1498.45,387.09 1498.41,384.37 1493.42,385.2 "
   id="polygon61" />

		<polygon
   points="1500.22,386.76 1505.21,385.94 1505.17,383.22 1500.18,384.04 "
   id="polygon63" />

		<polygon
   points="1506.98,385.59 1511.97,384.76 1511.94,382.04 1506.94,382.87 "
   id="polygon65" />

		<polygon
   points="1513.74,384.37 1518.74,383.54 1518.7,380.82 1513.71,381.65 "
   id="polygon67" />

		<polygon
   points="1525.46,379.67 1520.47,380.5 1520.5,383.22 1525.5,382.39 "
   id="polygon69" />

		<polygon
   points="1452.89,400.71 1457.88,399.88 1457.84,397.16 1452.85,397.99 "
   id="polygon71" />

		<polygon
   points="1459.65,399.53 1464.64,398.7 1464.6,395.98 1459.61,396.81 "
   id="polygon73" />

		<polygon
   points="1466.41,398.41 1471.4,397.58 1471.37,394.86 1466.37,395.69 "
   id="polygon75" />

		<polygon
   points="1473.17,397.3 1478.16,396.47 1478.13,393.75 1473.13,394.58 "
   id="polygon77" />

		<polygon
   points="1479.93,396.19 1484.93,395.36 1484.89,392.64 1479.9,393.47 "
   id="polygon79" />

		<polygon
   points="1486.69,395.08 1491.69,394.25 1491.65,391.53 1486.66,392.36 "
   id="polygon81" />

		<polygon
   points="1493.45,393.88 1498.45,393.05 1498.41,390.33 1493.42,391.16 "
   id="polygon83" />

		<polygon
   points="1500.22,392.73 1505.21,391.9 1505.17,389.18 1500.18,390.01 "
   id="polygon85" />

		<polygon
   points="1506.98,391.55 1511.97,390.72 1511.94,388 1506.94,388.83 "
   id="polygon87" />

		<polygon
   points="1513.74,390.33 1518.74,389.5 1518.7,386.78 1513.71,387.61 "
   id="polygon89" />

		<polygon
   points="1525.46,385.63 1520.47,386.46 1520.5,389.18 1525.5,388.35 "
   id="polygon91" />

		<polygon
   points="1452.89,406.67 1457.88,405.85 1457.84,403.13 1452.85,403.96 "
   id="polygon93" />

		<polygon
   points="1459.65,405.5 1464.64,404.67 1464.6,401.95 1459.61,402.78 "
   id="polygon95" />

		<polygon
   points="1466.41,404.37 1471.4,403.55 1471.37,400.83 1466.37,401.65 "
   id="polygon97" />

		<polygon
   points="1473.17,403.27 1478.16,402.44 1478.13,399.72 1473.13,400.55 "
   id="polygon99" />

		<polygon
   points="1479.93,402.15 1484.93,401.32 1484.89,398.6 1479.9,399.43 "
   id="polygon101" />

		<polygon
   points="1486.69,401.04 1491.69,400.21 1491.65,397.5 1486.66,398.32 "
   id="polygon103" />

		<polygon
   points="1493.45,399.84 1498.45,399.02 1498.41,396.3 1493.42,397.12 "
   id="polygon105" />

		<polygon
   points="1500.22,398.69 1505.21,397.86 1505.17,395.14 1500.18,395.97 "
   id="polygon107" />

		<polygon
   points="1506.98,397.51 1511.97,396.68 1511.94,393.97 1506.94,394.79 "
   id="polygon109" />

		<polygon
   points="1513.74,396.3 1518.74,395.47 1518.7,392.75 1513.71,393.58 "
   id="polygon111" />

		<polygon
   points="1525.46,391.6 1520.47,392.42 1520.5,395.14 1525.5,394.32 "
   id="polygon113" />

	</g>

	<g
   id="g135">
		<polygon
   points="84.13,131.23 83.87,133.76 136.21,139.54 136.41,136.61 "
   id="polygon117" />

		<path
   d="m 142.23,54.69 c 0.02,-0.32 -0.1,-0.63 -0.35,-0.86 -0.25,-0.24 -0.6,-0.36 -0.96,-0.34 l -51.31,2.9 c -0.71,0.04 -1.29,0.56 -1.35,1.21 l -6.23,71.75 54.48,5.6 z m -6.96,11.17 -2.66,54.19 c -0.03,0.54 -0.52,0.94 -1.1,0.9 l -43.39,-3.54 c -1.86,-0.15 -3.24,-1.68 -3.08,-3.42 l 4.33,-48.11 c 0.14,-1.58 1.52,-2.82 3.22,-2.9 l 41.8,-1.83 c 0.59,-0.03 1.08,0.43 1.06,0.98 z"
   id="path119" />

		<path
   d="m 187.02,125.14 c -3.13,-0.97 -6.65,0.15 -8.53,2.66 0.2,-0.06 0.41,-0.1 0.62,-0.1 0.38,0 0.73,0.09 1.04,0.25 1.79,-1.7 4.56,-2.23 6.86,-1.27 1.79,0.75 3.05,2.26 3.44,4.03 0.72,0.1 1.33,0.52 1.66,1.1 0.02,0 0.04,0 0.06,0 0,-3.01 -2.05,-5.71 -5.15,-6.67 z"
   id="path121" />

		<path
   d="m 188.24,122.56 c -4.58,-1.63 -9.83,0.07 -12.47,3.95 0.47,0.16 0.87,0.46 1.14,0.85 0.04,0 0.08,-0.01 0.12,-0.01 0.11,0 0.22,0.01 0.32,0.03 2.17,-3.1 6.26,-4.46 10.03,-3.29 3.72,1.15 6.14,4.47 5.96,8.12 0.08,0.05 0.15,0.11 0.22,0.17 0.22,-0.05 0.46,-0.08 0.7,-0.06 0.21,0.02 0.4,0.06 0.58,0.13 0.38,-4.28 -2.3,-8.36 -6.6,-9.89 z"
   id="path123" />

		<path
   d="m 186.53,127.7 c -1.85,-0.77 -4.06,-0.34 -5.51,1.02 0.15,0.23 0.26,0.48 0.31,0.76 0.37,0.06 0.71,0.22 1,0.43 1.02,-0.65 2.34,-0.78 3.46,-0.26 1.16,0.53 1.88,1.67 1.9,2.89 0.07,0.02 0.13,0.03 0.2,0.06 0.11,-0.8 0.65,-1.44 1.38,-1.73 -0.34,-1.39 -1.33,-2.58 -2.74,-3.17 z"
   id="path125" />

		<path
   d="m 148.86,152.16 c -0.02,-0.47 -0.31,-0.9 -0.77,-1.12 L 144,149.12 c -1.14,-0.54 -1.83,-1.65 -1.75,-2.84 l 6.56,-96.37 0.24,0.01 c -4.36,-0.44 -7.21,-0.73 -7.23,-0.73 l -55.49,2.6 c -1.1,0.05 -1.98,0.88 -2.07,1.94 l -8.03,95.76 c -0.09,1.07 0.66,2.03 1.75,2.24 l 4.68,0.91 c 1.02,0.2 1.76,1.07 1.76,2.07 v 11.09 c 0,1 0.72,1.86 1.74,2.07 l 58.21,11.83 -1.12,-22.12 c -0.02,-0.27 -0.27,-0.49 -0.57,-0.49 l -8.23,-0.02 c -0.12,0.01 -0.23,0.03 -0.35,0.03 -0.12,0 -0.23,-0.02 -0.35,-0.03 v 0 0 c -0.05,-0.01 -0.1,0 -0.15,-0.01 l -51.63,-8.67 c -1.87,-0.31 -3.16,-1.87 -3.01,-3.63 l 0.99,-11.44 2.18,0.24 0.26,-2.51 -2.22,-0.23 6.37,-73.36 c 0.13,-1.47 1.42,-2.65 3.01,-2.74 l 51.31,-2.9 c 0.87,-0.05 1.71,0.25 2.32,0.83 0.6,0.57 0.92,1.35 0.86,2.14 l -7.09,99.84 c -0.02,0.27 -0.1,0.53 -0.2,0.78 l 5.95,0.02 c 1.24,0 2.27,0.91 2.34,2.07 l 1.12,22.06 4.51,-0.81 -0.89,0.03 z"
   id="path127" />

		<path
   d="m 80.7,144.9 c -0.08,0.9 0.59,1.7 1.55,1.86 l 51.56,8.65 h 0.52 c 0.15,-0.03 0.29,-0.09 0.41,-0.19 0.24,-0.17 0.38,-0.42 0.4,-0.7 l 0.95,-13.33 -54.54,-6.02 z"
   id="path129" />

		<path
   d="M 207.59,72.06 197.44,55.7 c -0.35,-0.57 -0.96,-0.94 -1.64,-1.01 0,0 -29.93,-3.05 -45.22,-4.6 l -6.56,96.3 c -0.04,0.53 0.27,1.02 0.77,1.25 l 4.09,1.92 c 1.04,0.49 1.71,1.46 1.75,2.54 l 0.88,26.5 54.6,-9.79 c 1.04,-0.19 1.79,-1.06 1.79,-2.08 V 73.15 c 0,-0.39 -0.11,-0.76 -0.31,-1.09 z m -31.36,7.38 c -0.22,-2.8 1.83,-5.26 4.56,-5.72 2.37,-0.4 4.84,0.77 6.01,2.91 v 0 c 1.97,-1.54 4.74,-1.71 6.75,-0.48 2.32,1.42 3.17,4.43 1.8,6.93 0,0 -0.75,3.77 -12,9.34 v 0 c 0,0 0,0 0,0 0,0 0,0 0,0 v -0.01 c -8.01,-9.23 -7.12,-12.97 -7.12,-12.97 z m -14.28,7.39 5.12,11.85 5.34,-3.95 2.89,23.08 -6.01,-13.35 -5.79,2.33 -6.9,-16.17 z m -7.54,81.13 -0.02,-1.69 3.31,-0.51 0.02,1.69 z m 0,-3.7 -0.02,-1.69 3.31,-0.51 0.02,1.69 z m 0,-3.69 -0.02,-1.69 3.31,-0.51 0.02,1.69 z m 0,-3.7 -0.02,-1.69 3.31,-0.51 0.02,1.69 z m 4.49,10.36 -0.02,-1.69 3.31,-0.51 0.02,1.69 z m 0,-3.7 -0.02,-1.69 3.31,-0.51 0.02,1.69 z m 0,-3.69 -0.02,-1.69 3.31,-0.51 0.02,1.69 z m 0,-3.7 -0.02,-1.69 3.31,-0.51 0.02,1.69 z m 4.48,10.4 -0.02,-1.69 3.31,-0.51 0.02,1.69 z m 0,-3.7 -0.02,-1.69 3.31,-0.51 0.02,1.69 z m 0,-3.7 -0.02,-1.69 3.31,-0.51 0.02,1.69 z m 0,-3.7 -0.02,-1.69 3.31,-0.51 0.02,1.69 z m 4.49,10.41 -0.02,-1.69 3.31,-0.51 0.02,1.69 z m 0,-3.7 -0.02,-1.69 3.31,-0.51 0.02,1.69 z m 0,-3.7 -0.02,-1.69 3.31,-0.51 0.02,1.69 z m 0,-3.69 -0.02,-1.69 3.31,-0.51 0.02,1.69 z m 4.48,10.4 -0.02,-1.69 3.31,-0.51 0.02,1.69 z m 0,-3.7 -0.02,-1.69 3.31,-0.51 0.02,1.69 z m 0,-3.7 -0.02,-1.69 3.31,-0.51 0.02,1.69 z m 0,-3.69 -0.02,-1.69 3.31,-0.51 0.02,1.69 z m 4.49,10.4 -0.02,-1.69 3.31,-0.51 0.02,1.69 z m 0,-3.7 -0.02,-1.69 3.31,-0.51 0.02,1.69 z m 0,-3.69 -0.02,-1.69 3.31,-0.51 0.02,1.69 z m 0,-3.7 -0.02,-1.69 3.31,-0.51 0.02,1.69 z m 4.48,10.35 -0.02,-1.69 3.31,-0.51 0.02,1.69 z m 0,-3.7 -0.02,-1.69 3.31,-0.51 0.02,1.69 z m 0,-3.7 -0.02,-1.69 3.31,-0.51 0.02,1.69 z m 0,-3.69 -0.02,-1.69 3.31,-0.51 0.02,1.69 z m 4.49,10.37 -0.02,-1.69 3.31,-0.51 0.02,1.69 z m 0,-3.69 -0.02,-1.69 3.31,-0.51 0.02,1.69 z m 0,-3.7 -0.02,-1.69 3.31,-0.51 0.02,1.69 z m 0,-3.7 -0.02,-1.69 3.31,-0.51 0.02,1.69 z m 4.49,10.36 -0.02,-1.69 3.31,-0.51 0.02,1.69 z m 0,-3.7 -0.02,-1.69 3.31,-0.51 0.02,1.69 z m 0,-3.69 -0.02,-1.69 3.31,-0.51 0.02,1.69 z m 0,-3.7 -0.02,-1.69 3.31,-0.51 0.02,1.69 z m 2.38,-11.15 c -0.46,0.47 -1.12,0.76 -1.84,0.7 -0.85,-0.06 -1.54,-0.58 -1.87,-1.28 -0.1,0 -0.19,0.01 -0.29,0.01 -1.25,-0.09 -2.17,-1.14 -2.07,-2.34 0.01,-0.13 0.04,-0.25 0.07,-0.37 -1.11,-0.21 -1.9,-1.18 -1.81,-2.29 0.08,-0.93 0.76,-1.67 1.64,-1.91 -0.01,-0.81 -0.48,-1.56 -1.24,-1.91 -0.72,-0.33 -1.57,-0.25 -2.24,0.16 0.11,0.25 0.17,0.52 0.17,0.81 0,0.91 -0.58,1.68 -1.41,2.01 0,0.06 0.02,0.11 0.02,0.16 0,1.2 -1.01,2.17 -2.26,2.17 -0.52,0 -0.98,-0.17 -1.37,-0.45 -0.41,0.51 -1.05,0.84 -1.78,0.84 -0.85,0 -1.59,-0.46 -1.97,-1.13 -0.1,0.01 -0.19,0.03 -0.29,0.03 -1.25,0 -2.26,-0.97 -2.26,-2.17 0,-0.13 0.02,-0.25 0.04,-0.38 -1.12,-0.13 -2,-1.03 -2,-2.15 0,-1.2 1.01,-2.17 2.26,-2.17 0.2,0 0.4,0.03 0.58,0.08 0.04,-0.97 0.74,-1.76 1.68,-2 l -0.03,-0.01 c 2.8,-4.7 8.93,-6.82 14.25,-4.93 5.03,1.79 8.06,6.7 7.28,11.73 0.21,0.29 0.35,0.64 0.39,1.01 1.04,0.26 1.77,1.2 1.68,2.27 -0.08,0.91 -0.73,1.64 -1.57,1.9 0,0.06 0.01,0.11 0,0.16 -0.1,1.2 -1.2,2.09 -2.44,2 -0.51,-0.04 -0.97,-0.24 -1.32,-0.55 z m 2.1,21.49 -0.02,-1.69 3.31,-0.51 0.02,1.69 z m 0,-3.7 -0.02,-1.69 3.31,-0.51 0.02,1.69 z m 0,-3.7 -0.02,-1.69 3.31,-0.51 0.02,1.69 z m 0,-3.69 -0.02,-1.69 3.31,-0.51 0.02,1.69 z m 4.49,10.37 -0.02,-1.69 3.31,-0.51 0.02,1.69 z m 0,-3.69 -0.02,-1.69 3.31,-0.51 0.02,1.69 z m 0,-3.7 -0.02,-1.69 3.31,-0.51 0.02,1.69 z m 0,-3.7 -0.02,-1.69 3.31,-0.51 0.02,1.69 z"
   id="path131" />

		<path
   d="m 91.45,90.16 c -0.76,8.32 -0.62,15.78 -0.11,22.07 l 40.61,2.15 2,-47.51 -38.72,1.98 c -1.6,6.01 -3.04,13.18 -3.78,21.31 z"
   id="path133" />

	</g>

	<g
   id="g145">
		<g
   id="g143">
			<polygon
   points="253.31,95.43 253.31,89.92 247.8,89.92 247.8,84.41 258.81,84.41 258.81,67.89 242.29,67.89 242.29,95.43 "
   id="polygon137" />

			<polygon
   points="441.2,78.91 441.2,67.89 424.68,67.89 424.68,84.41 435.7,84.41 435.7,78.91 "
   id="polygon139" />

			<path
   d="M 464.44,107.71 465,69.66 447.4,50.92 218.25,48.08 v 5.96 40.04 l 6.25,6.53 v 21.01 l 13.63,13.06 v 30.1 l 12.21,12.78 h 26.41 15.05 l 181.44,2.56 V 118.79 Z M 413.67,62.39 h 33.04 v 5.51 h 5.51 V 84.42 H 441.2 v 5.51 h 5.51 v 5.51 h 5.51 v 5.51 H 435.7 v -5.51 h -5.51 v -5.51 h -5.51 v 11.01 h -11.01 z m -91.2,0 h 38.55 v 5.51 h -27.54 v 11.01 h 22.03 v 5.51 h -22.03 v 11.01 h 27.54 v 5.51 h -38.55 z m -85.68,38.54 v -5.51 h -5.51 V 67.89 h 5.51 v -5.51 h 27.54 v 5.51 h 5.51 v 22.03 h -5.51 v 5.51 h 5.51 v 5.51 h -5.51 v -5.51 h -5.51 v 5.51 h -22.03 z m 45.3,22.85 H 267.86 V 165.8 H 253.63 V 123.78 H 239.4 v -7 h 42.7 v 7 z m 0.29,-22.85 v -5.51 h -5.51 V 62.39 h 11.01 V 95.43 H 304.4 V 62.39 h 11.01 v 33.04 h -5.51 v 5.51 h -27.52 z m 62.18,22.85 h -35.58 v 14.01 h 28.46 v 7 h -28.46 v 14.01 h 35.58 v 7 h -49.81 v -49.03 h 49.81 z m 58.92,7.01 h -14.23 v -7 h -14.23 v 7 h -7.12 v 21.01 h 7.12 v 7 h 14.23 v -7 h 14.23 v 7 h -7.12 v 7 H 367.9 v -7 h -7.12 v -7 h -7.12 v -21.01 h 7.12 v -7 h 7.12 v -7 h 28.46 v 7 h 7.12 z m 3.14,-62.9 H 379.08 V 78.9 h 22.03 v 5.51 h -22.03 v 11.01 h 27.54 v 5.51 H 368.07 V 62.39 h 38.55 z m 55.78,97.92 H 448.17 V 144.8 h -21.35 v 21.01 h -14.23 v -49.03 h 14.23 v 21.01 h 21.35 v -21.01 h 14.23 z"
   id="path141" />

		</g>

	</g>

	<g
   id="g167">
		<path
   d="m 1446.58,200.21 c 0.26,0.02 0.53,0.01 0.79,-0.03 z"
   id="path147" />

		<polygon
   points="1434.23,135.97 1356.37,127.96 1355.98,131.73 1433.92,140.33 "
   id="polygon149" />

		<path
   d="m 1442.9,13.97 c 0.03,-0.48 -0.15,-0.94 -0.52,-1.28 -0.37,-0.35 -0.89,-0.53 -1.42,-0.5 l -76.4,4.32 c -1.06,0.06 -1.92,0.84 -2,1.81 l -9.27,106.85 81.13,8.34 z m -10.37,16.64 -3.96,80.7 c -0.04,0.8 -0.78,1.4 -1.63,1.33 l -64.61,-5.28 c -2.77,-0.23 -4.82,-2.5 -4.59,-5.09 l 6.44,-71.64 c 0.21,-2.36 2.26,-4.2 4.79,-4.31 l 62.25,-2.72 c 0.88,-0.04 1.61,0.64 1.57,1.47 z"
   id="path151" />

		<path
   d="m 1509.59,118.89 c -4.66,-1.44 -9.9,0.23 -12.71,3.96 0.3,-0.08 0.6,-0.15 0.93,-0.15 0.56,0 1.08,0.14 1.55,0.37 2.67,-2.54 6.79,-3.32 10.22,-1.88 2.66,1.11 4.53,3.36 5.13,6 1.08,0.15 1.97,0.77 2.47,1.64 0.03,0 0.06,0 0.09,0 -0.01,-4.49 -3.07,-8.51 -7.68,-9.94 z"
   id="path153" />

		<path
   d="m 1511.42,115.05 c -6.83,-2.43 -14.64,0.1 -18.57,5.89 0.7,0.24 1.3,0.69 1.7,1.27 0.06,0 0.12,-0.02 0.18,-0.02 0.16,0 0.32,0.02 0.48,0.04 3.23,-4.62 9.32,-6.64 14.94,-4.9 5.54,1.71 9.15,6.66 8.88,12.1 0.12,0.08 0.23,0.16 0.33,0.25 0.33,-0.08 0.68,-0.12 1.04,-0.09 0.31,0.02 0.59,0.1 0.87,0.19 0.53,-6.38 -3.45,-12.45 -9.85,-14.73 z"
   id="path155" />

		<path
   d="m 1508.86,122.7 c -2.75,-1.15 -6.04,-0.51 -8.2,1.53 0.22,0.34 0.39,0.72 0.47,1.13 0.56,0.09 1.06,0.32 1.49,0.65 1.52,-0.97 3.48,-1.16 5.16,-0.39 1.73,0.79 2.81,2.48 2.82,4.31 0.1,0.03 0.2,0.05 0.29,0.08 0.16,-1.19 0.97,-2.14 2.06,-2.58 -0.52,-2.08 -1.99,-3.85 -4.09,-4.73 z"
   id="path157" />

		<path
   d="m 1444.38,167.22 c -0.03,-0.4 -0.4,-0.73 -0.85,-0.73 l -12.26,-0.03 c -0.17,0.02 -0.34,0.04 -0.52,0.04 -0.17,0 -0.35,-0.02 -0.52,-0.04 v 0 0 c -0.08,-0.01 -0.15,-0.01 -0.23,-0.02 l -76.89,-12.9 c -2.78,-0.47 -4.71,-2.79 -4.48,-5.4 l 1.48,-17.04 3.24,0.36 0.38,-3.74 -3.3,-0.34 9.48,-109.24 c 0.19,-2.19 2.12,-3.94 4.48,-4.08 l 76.4,-4.32 c 1.29,-0.08 2.55,0.37 3.46,1.23 0.9,0.84 1.37,2.01 1.28,3.19 l -10.56,148.68 c -0.03,0.41 -0.15,0.79 -0.3,1.16 l 8.86,0.03 c 1.84,0.01 3.37,1.36 3.48,3.08 l 1.66,32.86 6.71,-1.2 -1.32,0.04 -1.32,-39.65 c -0.03,-0.7 -0.47,-1.34 -1.15,-1.66 l -6.09,-2.85 c -1.7,-0.8 -2.72,-2.46 -2.6,-4.24 l 9.77,-143.51 0.35,0.02 c -6.5,-0.66 -10.73,-1.09 -10.77,-1.08 l -82.64,3.87 c -1.63,0.08 -2.95,1.31 -3.08,2.89 l -11.96,142.61 c -0.13,1.59 0.99,3.03 2.6,3.34 l 6.97,1.35 c 1.52,0.29 2.61,1.59 2.61,3.09 v 16.51 c 0,1.49 1.08,2.77 2.58,3.08 l 86.69,17.61 z"
   id="path159" />

		<path
   d="m 1432.34,162.66 1.41,-19.85 -81.22,-8.97 -1.26,14.48 c -0.12,1.34 0.88,2.53 2.31,2.77 l 76.78,12.88 h 0.77 c 0.22,-0.05 0.43,-0.14 0.61,-0.28 0.36,-0.25 0.57,-0.62 0.6,-1.03 z"
   id="path161" />

		<path
   d="m 1540.22,39.84 -15.1,-24.36 c -0.53,-0.85 -1.43,-1.41 -2.45,-1.51 0,0 -44.58,-4.54 -67.34,-6.85 l -9.77,143.41 c -0.05,0.78 0.4,1.51 1.15,1.87 l 6.09,2.85 c 1.55,0.72 2.55,2.18 2.61,3.79 l 1.31,39.46 81.31,-14.57 c 1.54,-0.28 2.66,-1.58 2.66,-3.09 V 41.46 c -0.01,-0.57 -0.17,-1.13 -0.47,-1.62 z m -39.9,2.47 c 3.52,-0.59 7.21,1.15 8.95,4.33 v 0 c 2.93,-2.29 7.06,-2.55 10.05,-0.71 3.45,2.12 4.72,6.6 2.68,10.32 0,0 -1.12,5.61 -17.86,13.92 v 0 c 0,0 0,0 0,0 0,0 0,0 -0.01,0 v -0.01 c -11.92,-13.77 -10.6,-19.34 -10.6,-19.34 -0.33,-4.16 2.73,-7.82 6.79,-8.51 z m -28.06,19.53 7.62,17.65 7.95,-5.88 4.31,34.37 -8.95,-19.87 -8.62,3.46 -10.27,-24.07 z m -11.23,120.82 -0.04,-2.51 4.93,-0.76 0.04,2.51 z m 0,-5.51 -0.04,-2.51 4.93,-0.76 0.04,2.51 z m 0,-5.51 -0.04,-2.51 4.93,-0.76 0.04,2.51 z m 0,-5.5 -0.04,-2.51 4.93,-0.76 0.04,2.51 z m 6.68,15.43 -0.04,-2.51 4.93,-0.76 0.04,2.51 z m 0,-5.51 -0.04,-2.51 4.93,-0.76 0.04,2.51 z m 0,-5.5 -0.04,-2.51 4.93,-0.76 0.04,2.51 z m 0,-5.51 -0.04,-2.51 4.93,-0.76 0.04,2.51 z m 6.68,15.48 -0.04,-2.51 4.93,-0.76 0.04,2.51 z m 0,-5.5 -0.04,-2.51 4.93,-0.76 0.04,2.51 z m 0,-5.51 -0.04,-2.51 4.93,-0.76 0.04,2.51 z m 0,-5.5 -0.04,-2.51 4.93,-0.76 0.04,2.51 z m 6.68,15.49 -0.04,-2.51 4.93,-0.76 0.04,2.51 z m 0,-5.51 -0.04,-2.51 4.93,-0.76 0.04,2.51 z m 0,-5.5 -0.04,-2.51 4.93,-0.76 0.04,2.51 z m 0,-5.51 -0.04,-2.51 4.93,-0.76 0.04,2.51 z m 6.68,15.49 -0.04,-2.51 4.93,-0.76 0.04,2.51 z m 0,-5.51 -0.04,-2.51 4.93,-0.76 0.04,2.51 z m 0,-5.5 -0.04,-2.51 4.93,-0.76 0.04,2.51 z m 0,-5.51 -0.04,-2.51 4.93,-0.76 0.04,2.51 z m 6.68,15.5 -0.04,-2.51 4.93,-0.76 0.04,2.51 z m 0,-5.51 -0.04,-2.51 4.93,-0.76 0.04,2.51 z m 0,-5.5 -0.04,-2.51 4.93,-0.76 0.04,2.51 z m 0,-5.51 -0.04,-2.51 4.93,-0.76 0.04,2.51 z m 6.68,15.41 -0.04,-2.51 4.93,-0.76 0.04,2.51 z m 0,-5.51 -0.04,-2.51 4.93,-0.76 0.04,2.51 z m 0,-5.5 -0.04,-2.51 4.93,-0.76 0.04,2.51 z m 0,-5.51 -0.04,-2.51 4.93,-0.76 0.04,2.51 z m 6.68,15.46 -0.04,-2.51 4.93,-0.76 0.04,2.51 z m 0,-5.51 -0.04,-2.51 4.93,-0.76 0.04,2.51 z m 0,-5.5 -0.04,-2.51 4.93,-0.76 0.04,2.51 z m 0,-5.51 -0.04,-2.51 4.93,-0.76 0.04,2.51 z m 6.68,15.43 -0.04,-2.51 4.93,-0.76 0.04,2.51 z m 0,-5.51 -0.04,-2.51 4.93,-0.76 0.04,2.51 z m 0,-5.5 -0.04,-2.51 4.93,-0.76 0.04,2.51 z m 0,-5.51 -0.04,-2.51 4.93,-0.76 0.04,2.51 z m 3.55,-16.6 c -0.68,0.71 -1.67,1.13 -2.74,1.05 -1.27,-0.1 -2.3,-0.86 -2.79,-1.9 -0.14,0.01 -0.29,0.02 -0.43,0.01 -1.86,-0.14 -3.24,-1.7 -3.08,-3.48 0.02,-0.19 0.06,-0.37 0.11,-0.55 -1.65,-0.31 -2.84,-1.76 -2.69,-3.41 0.12,-1.38 1.13,-2.48 2.44,-2.85 -0.01,-1.21 -0.71,-2.33 -1.84,-2.85 -1.07,-0.49 -2.34,-0.38 -3.34,0.24 0.16,0.37 0.25,0.78 0.25,1.21 0,1.35 -0.87,2.51 -2.09,2.99 0.01,0.08 0.03,0.16 0.03,0.24 0,1.79 -1.51,3.24 -3.37,3.24 -0.77,0 -1.47,-0.26 -2.03,-0.67 -0.62,0.76 -1.57,1.25 -2.64,1.25 -1.27,0 -2.37,-0.68 -2.94,-1.68 -0.14,0.02 -0.28,0.04 -0.43,0.04 -1.86,0 -3.37,-1.45 -3.37,-3.24 0,-0.19 0.03,-0.38 0.06,-0.56 -1.67,-0.19 -2.98,-1.54 -2.98,-3.2 0,-1.79 1.51,-3.24 3.37,-3.24 0.3,0 0.59,0.05 0.87,0.12 0.06,-1.44 1.11,-2.63 2.5,-2.98 l -0.04,-0.02 c 4.18,-7 13.3,-10.15 21.22,-7.34 7.49,2.67 12.01,9.98 10.84,17.46 0.31,0.44 0.52,0.95 0.58,1.51 1.55,0.39 2.64,1.79 2.5,3.38 -0.12,1.35 -1.08,2.44 -2.34,2.83 0,0.08 0.01,0.16 0,0.25 -0.15,1.78 -1.78,3.11 -3.64,2.97 -0.79,-0.06 -1.46,-0.36 -1.99,-0.82 z m 3.13,31.99 -0.04,-2.51 4.93,-0.76 0.04,2.51 z m 0,-5.5 -0.04,-2.51 4.93,-0.76 0.04,2.51 z m 0,-5.51 -0.04,-2.51 4.93,-0.76 0.04,2.51 z m 0,-5.5 -0.04,-2.51 4.93,-0.76 0.04,2.51 z m 6.69,15.45 -0.04,-2.51 4.93,-0.76 0.04,2.51 z m 0,-5.5 -0.04,-2.51 4.93,-0.76 0.04,2.51 z m 0,-5.51 -0.04,-2.51 4.93,-0.76 0.04,2.51 z m 0,-5.51 -0.04,-2.51 4.93,-0.76 0.04,2.51 z"
   id="path163" />

		<path
   d="m 1367.27,66.79 c -1.14,12.4 -0.93,23.5 -0.17,32.87 l 60.47,3.2 2.98,-70.75 -57.66,2.94 c -2.37,8.97 -4.51,19.64 -5.62,31.74 z"
   id="path165" />

	</g>

	<g
   id="g267">
		<path
   d="m 207,249.66 -9.44,-15.98 c -0.68,-1.15 -1.87,-1.92 -3.19,-2.06 -50.3,-5.38 -50.35,-5.38 -50.59,-5.37 l -52.69,2.59 c -1.53,0.07 -2.77,1.29 -2.89,2.82 l -7.6,95.03 c -0.15,1.89 1.13,3.6 2.98,3.98 l 4.67,0.95 v 10.72 c 0,2.01 1.41,3.76 3.36,4.18 l 54.22,11.56 c 0.29,0.06 0.58,0.09 0.88,0.09 0.26,0 0.52,-0.02 0.78,-0.07 l 56.65,-10.65 c 2.01,-0.38 3.46,-2.14 3.46,-4.2 v -91.4 c 0,-0.77 -0.21,-1.53 -0.6,-2.19 z m -60.96,78.09 3.81,1.91 c 0.52,0.26 0.85,0.78 0.87,1.35 l 0.81,21.84 -3.93,0.74 -1.02,-17.23 c -0.06,-1.01 -0.9,-1.8 -1.9,-1.8 l -6.39,-0.02 c 0.22,-0.33 0.36,-0.71 0.39,-1.11 l 6.98,-102.03 c 0.01,-0.18 0,-0.36 -0.02,-0.53 1.18,0.12 2.86,0.3 4.9,0.52 l -5.97,93.79 c -0.07,1.08 0.51,2.08 1.47,2.57 z m -9.67,6.78 v 0.01 c -0.14,0.02 -0.27,0.02 -0.41,-0.01 l -50.82,-8.85 c -0.01,0 -0.02,-0.01 -0.03,-0.01 l 0.98,-12.22 1.56,0.16 50.88,5.83 -0.95,13.9 c -0.02,0.36 -0.2,0.68 -0.49,0.91 -0.18,0.14 -0.4,0.23 -0.62,0.27 z m 8.19,-103.21 -5.63,82.33 -52.41,-5.48 5.99,-74.98 51.33,-2.52 c 0.13,0.01 0.35,0.04 0.64,0.07 0.06,0.19 0.09,0.38 0.08,0.58 z m -5.71,83.44 -0.25,3.59 -49.92,-5.72 0.3,-2.98 -2.57,-0.26 0.01,-0.11 z m -46.19,27.47 v -10.72 c 0,-1.63 -0.93,-3.08 -2.31,-3.8 l 45.42,7.91 c 0.15,0.03 0.29,0.04 0.44,0.04 0.12,0 0.23,-0.01 0.34,-0.03 l 8.13,0.02 c 0.43,0 0.78,0.34 0.8,0.76 l 1.03,17.29 z m 110.53,0.9 -50.56,9.51 -0.81,-21.67 c -0.04,-0.98 -0.6,-1.86 -1.48,-2.3 l -3.81,-1.91 c -0.57,-0.28 -0.91,-0.88 -0.87,-1.51 l 5.97,-93.75 c 10.83,1.15 30.24,3.23 42.17,4.5 l 9.38,15.88 v 91.25 z"
   id="path169" />

		<path
   d="m 137.54,240.37 -38.9,1.82 c -1.58,0.07 -2.86,1.31 -3,2.88 l -4.03,47.92 c -0.15,1.73 1.14,3.25 2.87,3.4 l 40.38,3.53 c 0.53,0.05 1,-0.36 1.02,-0.89 l 2.47,-53.98 0.17,-3.7 c 0.03,-0.55 -0.43,-1.01 -0.98,-0.98 z m -2.28,53.01 -37.79,-2.14 c -0.48,-6.27 -0.61,-13.69 0.1,-21.99 0.69,-8.09 2.03,-15.23 3.52,-21.23 l 36.03,-1.97 z"
   id="path171" />

		<polygon
   points="164.08,285.82 169.46,283.51 175.05,296.8 172.36,273.81 167.39,277.75 162.63,265.94 157.66,269.72 "
   id="polygon173" />

		<path
   d="m 187.49,300.5 c -4.95,-1.89 -10.65,0.22 -13.26,4.91 l 0.03,0.01 c -0.87,0.24 -1.52,1.03 -1.57,1.99 -0.17,-0.05 -0.35,-0.08 -0.54,-0.08 -1.16,0 -2.11,0.97 -2.11,2.17 0,1.11 0.82,2.01 1.86,2.14 -0.02,0.12 -0.04,0.25 -0.04,0.37 0,1.2 0.94,2.17 2.11,2.17 0.09,0 0.18,-0.02 0.27,-0.03 0.36,0.67 1.04,1.13 1.84,1.13 0.67,0 1.27,-0.33 1.65,-0.84 0.35,0.28 0.79,0.45 1.27,0.45 1.16,0 2.11,-0.97 2.11,-2.17 0,-0.06 -0.01,-0.11 -0.02,-0.16 0.77,-0.32 1.31,-1.1 1.31,-2 0,-0.29 -0.06,-0.56 -0.16,-0.81 0.62,-0.41 1.41,-0.49 2.09,-0.16 0.71,0.35 1.15,1.09 1.15,1.91 -0.82,0.24 -1.45,0.98 -1.53,1.9 -0.09,1.11 0.65,2.07 1.68,2.28 -0.03,0.12 -0.06,0.24 -0.07,0.37 -0.1,1.19 0.77,2.23 1.93,2.33 0.09,0.01 0.18,0 0.27,-0.01 0.3,0.69 0.95,1.21 1.74,1.27 0.67,0.05 1.29,-0.23 1.71,-0.7 0.33,0.3 0.75,0.51 1.23,0.55 1.16,0.09 2.18,-0.8 2.28,-1.99 0,-0.06 0,-0.11 0,-0.16 0.79,-0.26 1.39,-0.99 1.47,-1.89 0.09,-1.06 -0.59,-2 -1.56,-2.26 -0.04,-0.37 -0.16,-0.71 -0.36,-1.01 0.73,-5 -2.09,-9.89 -6.78,-11.68 z m -0.72,11.04 c -0.06,-0.02 -0.12,-0.04 -0.18,-0.06 -0.01,-1.22 -0.68,-2.35 -1.76,-2.88 -1.05,-0.51 -2.28,-0.38 -3.22,0.26 -0.27,-0.22 -0.58,-0.37 -0.93,-0.43 -0.05,-0.28 -0.15,-0.53 -0.29,-0.76 1.35,-1.36 3.41,-1.79 5.13,-1.02 1.31,0.59 2.23,1.77 2.55,3.16 -0.69,0.29 -1.2,0.93 -1.3,1.73 z m 3.93,-0.78 c -0.31,-0.58 -0.87,-1 -1.54,-1.1 -0.37,-1.77 -1.54,-3.27 -3.21,-4.01 -2.15,-0.96 -4.72,-0.44 -6.39,1.26 -0.29,-0.16 -0.62,-0.25 -0.97,-0.25 -0.2,0 -0.4,0.04 -0.58,0.1 1.76,-2.5 5.03,-3.61 7.94,-2.65 2.88,0.95 4.8,3.64 4.8,6.65 -0.01,0 -0.03,0 -0.05,0 z m 2.56,0.63 c -0.17,-0.06 -0.35,-0.11 -0.54,-0.13 -0.23,-0.02 -0.44,0.01 -0.65,0.06 -0.07,-0.06 -0.14,-0.12 -0.21,-0.17 0.17,-3.64 -2.08,-6.95 -5.55,-8.09 -3.51,-1.16 -7.32,0.19 -9.34,3.28 -0.1,-0.01 -0.2,-0.03 -0.3,-0.03 -0.04,0 -0.08,0.01 -0.11,0.01 -0.25,-0.39 -0.62,-0.69 -1.06,-0.85 2.46,-3.87 7.34,-5.56 11.61,-3.94 3.99,1.53 6.48,5.59 6.15,9.86 z"
   id="path175" />

		<path
   d="m 192.04,255.31 c -1.87,-1.23 -4.45,-1.06 -6.28,0.48 v 0 c -1.08,-2.13 -3.39,-3.3 -5.59,-2.9 -2.54,0.46 -4.45,2.91 -4.25,5.7 0,0 -0.83,3.73 6.62,12.94 v 0.01 c 0,0 0,0 0,0 0,0 0,0 0,0 v 0 c 10.47,-5.55 11.16,-9.31 11.16,-9.31 1.29,-2.5 0.5,-5.51 -1.66,-6.92 z"
   id="path177" />

		<polygon
   points="155.61,335.71 158.69,335.19 158.67,333.52 155.59,334.03 "
   id="polygon179" />

		<polygon
   points="159.79,334.98 162.87,334.47 162.85,332.79 159.76,333.3 "
   id="polygon181" />

		<polygon
   points="163.96,334.29 167.04,333.77 167.02,332.1 163.94,332.61 "
   id="polygon183" />

		<polygon
   points="168.14,333.6 171.22,333.09 171.2,331.41 168.11,331.92 "
   id="polygon185" />

		<polygon
   points="172.31,332.91 175.39,332.4 175.37,330.72 172.29,331.23 "
   id="polygon187" />

		<polygon
   points="176.49,332.23 179.57,331.72 179.55,330.04 176.46,330.55 "
   id="polygon189" />

		<polygon
   points="180.66,331.49 183.74,330.98 183.72,329.3 180.64,329.81 "
   id="polygon191" />

		<polygon
   points="184.84,330.78 187.92,330.27 187.9,328.59 184.81,329.1 "
   id="polygon193" />

		<polygon
   points="189.01,330.05 192.1,329.54 192.07,327.86 188.99,328.37 "
   id="polygon195" />

		<polygon
   points="196.27,328.79 196.25,327.11 193.17,327.62 193.19,329.3 "
   id="polygon197" />

		<polygon
   points="200.42,326.4 197.34,326.91 197.36,328.59 200.45,328.07 "
   id="polygon199" />

		<polygon
   points="155.61,339.39 158.69,338.88 158.67,337.2 155.59,337.71 "
   id="polygon201" />

		<polygon
   points="159.79,338.66 162.87,338.15 162.85,336.47 159.76,336.98 "
   id="polygon203" />

		<polygon
   points="163.96,337.97 167.04,337.46 167.02,335.78 163.94,336.29 "
   id="polygon205" />

		<polygon
   points="168.14,337.28 171.22,336.77 171.2,335.09 168.11,335.61 "
   id="polygon207" />

		<polygon
   points="172.31,336.6 175.39,336.08 175.37,334.4 172.29,334.92 "
   id="polygon209" />

		<polygon
   points="176.49,335.91 179.57,335.4 179.55,333.72 176.46,334.23 "
   id="polygon211" />

		<polygon
   points="180.66,335.17 183.74,334.66 183.72,332.98 180.64,333.49 "
   id="polygon213" />

		<polygon
   points="184.84,334.46 187.92,333.95 187.9,332.27 184.81,332.78 "
   id="polygon215" />

		<polygon
   points="189.01,333.73 192.1,333.22 192.07,331.54 188.99,332.05 "
   id="polygon217" />

		<polygon
   points="193.19,332.98 196.27,332.47 196.25,330.79 193.17,331.3 "
   id="polygon219" />

		<polygon
   points="200.42,330.08 197.34,330.59 197.36,332.27 200.45,331.76 "
   id="polygon221" />

		<polygon
   points="155.61,343.07 158.69,342.56 158.67,340.88 155.59,341.39 "
   id="polygon223" />

		<polygon
   points="159.79,342.34 162.87,341.83 162.85,340.15 159.76,340.66 "
   id="polygon225" />

		<polygon
   points="163.96,341.65 167.04,341.14 167.02,339.46 163.94,339.97 "
   id="polygon227" />

		<polygon
   points="168.14,340.97 171.22,340.46 171.2,338.78 168.11,339.29 "
   id="polygon229" />

		<polygon
   points="172.31,340.28 175.39,339.77 175.37,338.09 172.29,338.6 "
   id="polygon231" />

		<polygon
   points="176.49,339.59 179.57,339.08 179.55,337.4 176.46,337.91 "
   id="polygon233" />

		<polygon
   points="180.66,338.85 183.74,338.34 183.72,336.66 180.64,337.17 "
   id="polygon235" />

		<polygon
   points="184.84,338.14 187.92,337.63 187.9,335.95 184.81,336.46 "
   id="polygon237" />

		<polygon
   points="189.01,337.41 192.1,336.9 192.07,335.22 188.99,335.74 "
   id="polygon239" />

		<polygon
   points="193.19,336.66 196.27,336.15 196.25,334.47 193.17,334.98 "
   id="polygon241" />

		<polygon
   points="200.42,333.76 197.34,334.27 197.36,335.95 200.45,335.44 "
   id="polygon243" />

		<polygon
   points="155.61,346.75 158.69,346.24 158.67,344.56 155.59,345.07 "
   id="polygon245" />

		<polygon
   points="159.79,346.03 162.87,345.51 162.85,343.84 159.76,344.35 "
   id="polygon247" />

		<polygon
   points="163.96,345.33 167.04,344.82 167.02,343.14 163.94,343.65 "
   id="polygon249" />

		<polygon
   points="168.14,344.65 171.22,344.14 171.2,342.46 168.11,342.97 "
   id="polygon251" />

		<polygon
   points="172.31,343.96 175.39,343.45 175.37,341.77 172.29,342.28 "
   id="polygon253" />

		<polygon
   points="176.49,343.28 179.57,342.76 179.55,341.09 176.46,341.6 "
   id="polygon255" />

		<polygon
   points="180.66,342.54 183.74,342.02 183.72,340.35 180.64,340.86 "
   id="polygon257" />

		<polygon
   points="184.84,341.82 187.92,341.31 187.9,339.63 184.81,340.15 "
   id="polygon259" />

		<polygon
   points="189.01,341.1 192.1,340.59 192.07,338.91 188.99,339.42 "
   id="polygon261" />

		<polygon
   points="193.19,340.35 196.27,339.83 196.25,338.15 193.17,338.67 "
   id="polygon263" />

		<polygon
   points="200.42,337.44 197.34,337.95 197.36,339.63 200.45,339.12 "
   id="polygon265" />

	</g>

	<g
   id="g277">
		<g
   id="g275">
			<polygon
   points="252.35,273.06 252.35,267.56 246.84,267.56 246.84,262.05 257.86,262.05 257.86,245.53 241.34,245.53 241.34,273.06 "
   id="polygon269" />

			<polygon
   points="440.25,256.54 440.25,245.53 423.72,245.53 423.72,262.05 434.74,262.05 434.74,256.54 "
   id="polygon271" />

			<path
   d="m 463.48,285.34 0.57,-38.05 -17.6,-18.74 -229.15,-2.84 v 5.96 40.04 l 6.25,6.53 v 21.01 l 13.63,13.06 v 30.1 l 12.21,12.78 h 26.41 15.05 l 181.44,2.56 v -61.33 z m -50.77,-45.32 h 33.04 v 5.51 h 5.51 v 16.52 h -11.01 v 5.51 h 5.51 v 5.51 h 5.51 v 5.51 h -16.52 v -5.51 h -5.51 v -5.51 h -5.51 v 11.01 h -11.01 v -38.55 z m -91.19,0 h 38.55 v 5.51 h -27.54 v 11.01 h 22.03 v 5.51 h -22.03 v 11.01 h 27.54 v 5.51 h -38.55 z m -85.69,38.55 v -5.51 h -5.51 v -27.53 h 5.51 v -5.51 h 27.54 v 5.51 h 5.51 v 22.03 h -5.51 v 5.51 h 5.51 v 5.51 h -5.51 v -5.51 h -5.51 v 5.51 h -22.03 z m 45.3,22.85 H 266.9 v 42.02 h -14.23 v -42.02 h -14.23 v -7 h 42.7 v 7 z m 0.3,-22.85 v -5.51 h -5.51 v -33.04 h 11.01 v 33.04 h 16.52 v -33.04 h 11.01 v 33.04 h -5.51 v 5.51 z m 62.18,22.85 h -35.58 v 14.01 h 28.46 v 7 h -28.46 v 14.01 h 35.58 v 7 H 293.8 v -49.03 h 49.81 z m 58.92,7 H 388.3 v -7 h -14.23 v 7 h -7.12 v 21.01 h 7.12 v 7 h 14.23 v -7 h 14.23 v 7 h -7.12 v 7 h -28.46 v -7 h -7.12 v -7 h -7.12 v -21.01 h 7.12 v -7 h 7.12 v -7 h 28.46 v 7 h 7.12 z m 3.13,-62.89 h -27.54 v 11.01 h 22.03 v 5.51 h -22.03 v 11.01 h 27.54 v 5.51 h -38.55 v -38.55 h 38.55 z m 55.79,97.91 h -14.23 v -21.01 h -21.35 v 21.01 h -14.23 v -49.03 h 14.23 v 21.01 h 21.35 v -21.01 h 14.23 z"
   id="path273" />

		</g>

	</g>

	<g
   id="g285">
		<polygon
   points="581.8,223.19 581.8,218.87 577.48,218.87 577.48,214.56 586.11,214.56 586.11,201.62 573.17,201.62 573.17,223.19 "
   id="polygon279" />

		<polygon
   points="728.98,210.25 728.98,201.62 716.04,201.62 716.04,214.56 724.67,214.56 724.67,210.25 "
   id="polygon281" />

		<path
   d="m 747.18,232.81 0.44,-29.8 -13.79,-14.68 -179.5,-2.22 v 4.67 31.36 l 4.89,5.12 v 16.46 l 10.68,10.23 v 23.58 l 9.56,10.01 h 20.69 11.79 l 142.13,2 V 241.5 Z m -39.77,-35.5 h 25.88 v 4.31 h 4.31 v 12.94 h -8.63 v 4.31 h 4.31 v 4.31 h 4.31 v 4.31 h -12.94 v -4.31 h -4.31 v -4.31 h -4.31 v 8.63 h -8.63 v -30.19 z m -71.43,0 h 30.2 v 4.31 h -21.57 v 8.63 h 17.26 v 4.31 h -17.26 v 8.63 h 21.57 v 4.31 h -30.2 z m -67.12,30.19 v -4.31 h -4.31 v -21.57 h 4.31 v -4.31 h 21.57 v 4.31 h 4.31 v 17.25 h -4.31 v 4.31 h 4.31 v 4.31 h -4.31 v -4.31 h -4.31 v 4.31 h -17.26 z m 35.48,17.9 h -11.15 v 32.92 H 582.04 V 245.4 H 570.9 v -5.49 h 33.44 z m 0.23,-17.9 v -4.31 h -4.31 v -25.88 h 8.63 v 25.88 h 12.94 v -25.88 h 8.63 v 25.88 h -4.31 v 4.31 z m 48.71,17.9 h -27.87 v 10.97 h 22.3 v 5.49 h -22.3 v 10.97 h 27.87 v 5.49 h -39.02 v -38.4 h 39.02 z m 46.15,5.48 h -11.15 v -5.49 h -11.15 v 5.49 h -5.57 v 16.46 h 5.57 v 5.49 h 11.15 v -5.49 h 11.15 v 5.49 h -5.57 v 5.49 h -22.3 v -5.49 h -5.57 v -5.49 h -5.57 v -16.46 h 5.57 v -5.49 h 5.57 v -5.49 h 22.3 v 5.49 h 5.57 z m 2.46,-49.26 h -21.57 v 8.63 h 17.26 v 4.31 h -17.26 v 8.63 h 21.57 v 4.31 h -30.2 v -30.2 h 30.2 z m 43.7,76.7 h -11.15 v -16.46 h -16.72 v 16.46 h -11.15 v -38.4 h 11.15 v 16.46 h 16.72 v -16.46 h 11.15 z"
   id="path283" />

	</g>

	<g
   id="g293">
		<polygon
   points="575.91,490.51 575.91,486.19 571.58,486.19 571.58,481.86 580.23,481.86 580.23,468.89 567.26,468.89 567.26,490.51 "
   id="polygon287" />

		<polygon
   points="723.42,477.54 723.42,468.89 710.45,468.89 710.45,481.86 719.1,481.86 719.1,477.54 "
   id="polygon289" />

		<path
   d="m 741.66,500.15 0.45,-29.87 -13.82,-14.71 -179.9,-2.23 v 4.68 31.43 l 4.9,5.13 v 16.5 l 10.7,10.25 v 23.63 l 9.59,10.03 h 20.73 11.81 L 748.57,557 V 508.85 Z M 701.8,464.57 h 25.94 v 4.32 h 4.32 v 12.97 h -8.65 v 4.32 h 4.32 v 4.32 h 4.32 v 4.32 H 719.1 v -4.32 h -4.32 v -4.32 h -4.32 v 8.65 h -8.65 v -30.26 z m -71.59,0 h 30.26 v 4.32 h -21.62 v 8.65 h 17.29 v 4.32 h -17.29 v 8.65 h 21.62 v 4.32 h -30.26 z m -67.27,30.26 v -4.32 h -4.32 v -21.62 h 4.32 v -4.32 h 21.62 v 4.32 h 4.32 v 17.29 h -4.32 v 4.32 h 4.32 v 4.32 h -4.32 v -4.32 h -4.32 v 4.32 h -17.3 z m 35.56,17.94 h -11.17 v 32.99 h -11.17 v -32.99 h -11.17 v -5.5 h 33.52 v 5.5 z m 0.23,-17.94 v -4.32 h -4.32 v -25.94 h 8.65 v 25.94 h 12.97 v -25.94 h 8.65 v 25.94 h -4.32 v 4.32 z m 48.82,17.94 h -27.93 v 11 h 22.35 v 5.5 h -22.35 v 11 h 27.93 v 5.5 h -39.11 v -38.49 h 39.11 z m 46.26,5.5 h -11.17 v -5.5 h -11.17 v 5.5 h -5.59 v 16.5 h 5.59 v 5.5 h 11.17 v -5.5 h 11.17 v 5.5 h -5.59 v 5.5 h -22.35 v -5.5 h -5.59 v -5.5 h -5.59 v -16.5 h 5.59 v -5.5 h 5.59 v -5.5 h 22.35 v 5.5 h 5.59 z m 2.46,-49.38 h -21.62 v 8.65 h 17.29 v 4.32 h -17.29 v 8.65 h 21.62 v 4.32 h -30.26 v -30.26 h 30.26 z m 43.79,76.87 h -11.17 v -16.5 h -16.76 v 16.5 h -11.17 v -38.49 h 11.17 v 16.5 h 16.76 v -16.5 h 11.17 z"
   id="path291" />

	</g>

	<g
   id="g313">
		<polygon
   points="605.01,133.41 604.79,135.63 649.24,140.71 649.42,138.13 "
   id="polygon295" />

		<path
   d="m 654.36,66.12 c 0.02,-0.28 -0.09,-0.55 -0.29,-0.76 -0.21,-0.21 -0.51,-0.31 -0.81,-0.3 l -43.57,2.55 c -0.6,0.04 -1.09,0.49 -1.14,1.07 l -5.29,63.07 46.27,4.93 z m -5.91,9.82 -2.26,47.64 c -0.02,0.47 -0.45,0.83 -0.93,0.79 l -36.84,-3.11 c -1.58,-0.13 -2.75,-1.48 -2.62,-3 l 3.68,-42.29 c 0.12,-1.39 1.29,-2.48 2.73,-2.55 l 35.5,-1.61 c 0.5,-0.02 0.92,0.38 0.9,0.87 z"
   id="path297" />

		<path
   d="m 692.39,128.05 c -2.66,-0.85 -5.64,0.13 -7.25,2.34 0.17,-0.05 0.34,-0.09 0.53,-0.09 0.32,0 0.62,0.08 0.88,0.22 1.52,-1.5 3.87,-1.96 5.83,-1.11 1.52,0.66 2.59,1.98 2.93,3.54 0.62,0.09 1.13,0.46 1.41,0.97 0.02,0 0.04,0 0.05,0 0,-2.65 -1.75,-5.03 -4.38,-5.87 z"
   id="path299" />

		<path
   d="m 693.43,125.78 c -3.89,-1.44 -8.35,0.06 -10.59,3.47 0.4,0.14 0.74,0.41 0.97,0.75 0.04,0 0.07,-0.01 0.1,-0.01 0.09,0 0.18,0.01 0.27,0.02 1.84,-2.73 5.31,-3.92 8.52,-2.89 3.16,1.01 5.22,3.93 5.06,7.14 0.07,0.05 0.13,0.09 0.19,0.15 0.19,-0.04 0.39,-0.07 0.59,-0.05 0.17,0.01 0.34,0.06 0.5,0.11 0.32,-3.76 -1.95,-7.34 -5.61,-8.69 z"
   id="path301" />

		<path
   d="m 691.98,130.3 c -1.57,-0.68 -3.45,-0.3 -4.68,0.9 0.13,0.2 0.22,0.43 0.27,0.67 0.32,0.06 0.61,0.19 0.85,0.38 0.86,-0.57 1.99,-0.69 2.94,-0.23 0.99,0.47 1.6,1.46 1.61,2.54 0.06,0.02 0.11,0.03 0.17,0.05 0.09,-0.7 0.55,-1.27 1.17,-1.52 -0.3,-1.23 -1.14,-2.27 -2.33,-2.79 z"
   id="path303" />

		<path
   d="m 659.98,151.8 c -0.02,-0.42 -0.27,-0.79 -0.66,-0.98 l -3.47,-1.68 c -0.97,-0.47 -1.55,-1.45 -1.48,-2.5 l 5.57,-84.71 0.2,0.01 C 656.43,61.55 654.02,61.3 654,61.3 l -47.13,2.28 c -0.93,0.05 -1.68,0.78 -1.76,1.71 l -6.82,84.18 c -0.08,0.94 0.56,1.79 1.48,1.97 l 3.98,0.8 c 0.87,0.17 1.49,0.94 1.49,1.82 v 9.75 c 0,0.88 0.61,1.64 1.47,1.82 l 49.43,10.4 -0.95,-19.44 c -0.01,-0.24 -0.23,-0.43 -0.48,-0.43 l -6.99,-0.02 c -0.1,0.01 -0.2,0.02 -0.3,0.02 -0.1,0 -0.2,-0.01 -0.3,-0.03 v 0 0 c -0.04,-0.01 -0.09,0 -0.13,-0.01 l -43.85,-7.62 c -1.59,-0.28 -2.69,-1.65 -2.56,-3.19 l 0.84,-10.06 1.85,0.21 0.22,-2.21 -1.88,-0.2 5.41,-64.49 c 0.11,-1.29 1.21,-2.33 2.56,-2.41 l 43.57,-2.55 c 0.74,-0.04 1.46,0.22 1.97,0.73 0.51,0.5 0.78,1.19 0.73,1.88 l -6.02,87.77 c -0.02,0.24 -0.08,0.47 -0.17,0.69 l 5.06,0.01 c 1.05,0 1.92,0.8 1.99,1.82 l 0.95,19.4 3.83,-0.71 -0.75,0.02 z"
   id="path305" />

		<path
   d="m 602.11,145.42 c -0.07,0.79 0.5,1.49 1.32,1.63 l 43.78,7.61 h 0.44 c 0.13,-0.03 0.24,-0.08 0.35,-0.16 0.2,-0.15 0.32,-0.37 0.34,-0.62 l 0.8,-11.72 -46.32,-5.29 z"
   id="path307" />

		<path
   d="m 709.86,81.39 -8.61,-14.38 c -0.3,-0.5 -0.82,-0.83 -1.4,-0.89 0,0 -25.42,-2.68 -38.4,-4.04 l -5.57,84.66 c -0.03,0.46 0.23,0.89 0.65,1.1 l 3.47,1.68 c 0.88,0.43 1.45,1.28 1.49,2.24 l 0.75,23.3 46.37,-8.6 c 0.88,-0.16 1.52,-0.93 1.52,-1.83 V 82.34 c -0.01,-0.33 -0.1,-0.66 -0.27,-0.95 z m -26.63,6.48 c -0.18,-2.46 1.56,-4.62 3.87,-5.03 2.01,-0.35 4.11,0.68 5.1,2.56 v 0 c 1.67,-1.35 4.02,-1.5 5.73,-0.42 1.97,1.25 2.69,3.9 1.53,6.09 0,0 -0.64,3.31 -10.19,8.21 v 0 c 0,0 0,0 0,0 0,0 0,0 0,0 v 0 c -6.79,-8.12 -6.04,-11.41 -6.04,-11.41 z m -12.13,6.5 4.35,10.42 4.54,-3.47 2.46,20.29 -5.1,-11.73 -4.91,2.04 -5.86,-14.21 z m -6.4,71.32 -0.02,-1.48 2.81,-0.45 0.02,1.48 z m 0,-3.25 -0.02,-1.48 2.81,-0.45 0.02,1.48 z m 0,-3.25 -0.02,-1.48 2.81,-0.45 0.02,1.48 z m 0,-3.25 -0.02,-1.48 2.81,-0.45 0.02,1.48 z m 3.81,9.11 -0.02,-1.48 2.81,-0.45 0.02,1.48 z m 0,-3.25 -0.02,-1.48 2.81,-0.45 0.02,1.48 z m 0,-3.25 -0.02,-1.48 2.81,-0.45 0.02,1.48 z m 0,-3.25 -0.02,-1.48 2.81,-0.45 0.02,1.48 z m 3.81,9.14 -0.02,-1.48 2.81,-0.45 0.02,1.48 z m 0,-3.25 -0.02,-1.48 2.81,-0.45 0.02,1.48 z m 0,-3.25 -0.02,-1.48 2.81,-0.45 0.02,1.48 z m 0,-3.25 -0.02,-1.48 2.81,-0.45 0.02,1.48 z m 3.81,9.15 -0.02,-1.48 2.81,-0.45 0.02,1.48 z m 0,-3.25 -0.02,-1.48 2.81,-0.45 0.02,1.48 z m 0,-3.25 -0.02,-1.48 2.81,-0.45 0.02,1.48 z m 0,-3.25 -0.02,-1.48 2.81,-0.45 0.02,1.48 z m 3.81,9.14 -0.02,-1.48 2.81,-0.45 0.02,1.48 z m 0,-3.25 -0.02,-1.48 2.81,-0.45 0.02,1.48 z m 0,-3.25 -0.02,-1.48 2.81,-0.45 0.02,1.48 z m 0,-3.25 -0.02,-1.48 2.81,-0.45 0.02,1.48 z m 3.81,9.14 -0.02,-1.48 2.81,-0.45 0.02,1.48 z m 0,-3.25 -0.02,-1.48 2.81,-0.45 0.02,1.48 z m 0,-3.25 -0.02,-1.48 2.81,-0.45 0.02,1.48 z m 0,-3.25 -0.02,-1.48 2.81,-0.45 0.02,1.48 z m 3.81,9.1 -0.02,-1.48 2.81,-0.45 0.02,1.48 z m 0,-3.25 -0.02,-1.48 2.81,-0.45 0.02,1.48 z m 0,-3.25 -0.02,-1.48 2.81,-0.45 0.02,1.48 z m 0,-3.25 -0.02,-1.48 2.81,-0.45 0.02,1.48 z m 3.81,9.12 -0.02,-1.48 2.81,-0.45 0.02,1.48 z m 0,-3.25 -0.02,-1.48 2.81,-0.45 0.02,1.48 z m 0,-3.25 -0.02,-1.48 2.81,-0.45 0.02,1.48 z m 0,-3.25 -0.02,-1.48 2.81,-0.45 0.02,1.48 z m 3.81,9.11 -0.02,-1.48 2.81,-0.45 0.02,1.48 z m 0,-3.25 -0.02,-1.48 2.81,-0.45 0.02,1.48 z m 0,-3.25 -0.02,-1.48 2.81,-0.45 0.02,1.48 z m 0,-3.25 -0.02,-1.48 2.81,-0.45 0.02,1.48 z m 2.02,-9.8 c -0.39,0.42 -0.95,0.67 -1.56,0.62 -0.72,-0.06 -1.31,-0.51 -1.59,-1.12 -0.08,0 -0.16,0.01 -0.25,0.01 -1.06,-0.08 -1.85,-1 -1.76,-2.06 0.01,-0.11 0.03,-0.22 0.06,-0.33 -0.94,-0.19 -1.62,-1.04 -1.54,-2.02 0.07,-0.82 0.65,-1.47 1.39,-1.68 0,-0.72 -0.41,-1.38 -1.05,-1.68 -0.61,-0.29 -1.34,-0.22 -1.9,0.14 0.09,0.22 0.14,0.46 0.14,0.71 0,0.8 -0.49,1.48 -1.19,1.77 0,0.05 0.01,0.09 0.01,0.14 0,1.06 -0.86,1.91 -1.92,1.91 -0.44,0 -0.84,-0.15 -1.16,-0.4 -0.35,0.45 -0.89,0.74 -1.51,0.74 -0.73,0 -1.35,-0.4 -1.68,-0.99 -0.08,0.01 -0.16,0.02 -0.25,0.02 -1.06,0 -1.92,-0.86 -1.92,-1.91 0,-0.11 0.01,-0.22 0.03,-0.33 -0.96,-0.11 -1.7,-0.91 -1.7,-1.89 0,-1.06 0.86,-1.91 1.92,-1.91 0.17,0 0.34,0.03 0.49,0.07 0.04,-0.85 0.63,-1.55 1.43,-1.76 l -0.02,-0.01 c 2.38,-4.13 7.58,-5.99 12.1,-4.33 4.27,1.57 6.85,5.89 6.18,10.31 0.18,0.26 0.3,0.56 0.33,0.89 0.89,0.23 1.51,1.06 1.43,2 -0.07,0.8 -0.62,1.44 -1.34,1.67 0,0.05 0.01,0.1 0,0.14 -0.09,1.05 -1.02,1.84 -2.08,1.75 -0.4,-0.02 -0.79,-0.2 -1.09,-0.47 z m 1.79,18.89 -0.02,-1.48 2.81,-0.45 0.02,1.48 z m 0,-3.25 -0.02,-1.48 2.81,-0.45 0.02,1.48 z m 0,-3.25 -0.02,-1.48 2.81,-0.45 0.02,1.48 z m 0,-3.25 -0.02,-1.48 2.81,-0.45 0.02,1.48 z m 3.81,9.12 -0.02,-1.48 2.81,-0.45 0.02,1.48 z m 0,-3.25 -0.02,-1.48 2.81,-0.45 0.02,1.48 z m 0,-3.25 -0.02,-1.48 2.81,-0.45 0.02,1.48 z m 0,-3.25 -0.02,-1.48 2.81,-0.45 0.02,1.48 z"
   id="path309" />

		<path
   d="m 611.23,97.3 c -0.65,7.32 -0.53,13.87 -0.09,19.4 l 34.49,1.89 1.7,-41.76 -32.88,1.74 c -1.36,5.28 -2.59,11.58 -3.22,18.73 z"
   id="path311" />

	</g>

	<g
   id="g413">
		<path
   d="m 703.66,348.93 -8.28,-14.02 c -0.6,-1.01 -1.64,-1.68 -2.8,-1.81 -44.12,-4.72 -44.17,-4.72 -44.38,-4.71 l -46.22,2.27 c -1.34,0.07 -2.43,1.13 -2.54,2.47 l -6.66,83.37 c -0.13,1.66 0.99,3.16 2.61,3.49 l 4.1,0.83 v 9.4 c 0,1.76 1.24,3.3 2.95,3.67 L 650,444.03 c 0.25,0.05 0.51,0.08 0.77,0.08 0.23,0 0.46,-0.02 0.68,-0.06 l 49.7,-9.35 c 1.76,-0.33 3.04,-1.88 3.04,-3.68 v -80.18 c 0,-0.67 -0.18,-1.33 -0.53,-1.91 z m -53.47,68.5 3.34,1.67 c 0.45,0.23 0.75,0.68 0.76,1.19 l 0.71,19.15 -3.44,0.65 -0.9,-15.11 c -0.05,-0.88 -0.79,-1.58 -1.67,-1.58 l -5.61,-0.02 c 0.19,-0.29 0.31,-0.62 0.34,-0.98 l 6.12,-89.5 c 0.01,-0.16 0,-0.31 -0.02,-0.47 1.04,0.11 2.51,0.27 4.3,0.46 l -5.24,82.28 c -0.05,0.95 0.46,1.83 1.31,2.26 z m -8.49,5.95 v 0.01 c -0.12,0.01 -0.24,0.02 -0.36,-0.01 l -44.58,-7.77 c -0.01,0 -0.02,-0.01 -0.03,-0.01 l 0.86,-10.72 1.36,0.14 44.64,5.12 -0.83,12.2 c -0.02,0.31 -0.17,0.6 -0.43,0.8 -0.16,0.12 -0.35,0.2 -0.54,0.24 z m 7.18,-90.54 -4.94,72.23 -45.98,-4.81 5.26,-65.77 45.03,-2.21 c 0.11,0.01 0.31,0.03 0.56,0.06 0.06,0.15 0.09,0.32 0.07,0.5 z m -5,73.19 -0.22,3.15 -43.79,-5.02 0.26,-2.61 -2.25,-0.22 0.01,-0.1 z m -40.52,24.1 v -9.4 c 0,-1.43 -0.81,-2.71 -2.03,-3.33 l 39.84,6.94 c 0.13,0.02 0.26,0.03 0.38,0.03 0.1,0 0.2,-0.01 0.3,-0.02 l 7.13,0.02 c 0.37,0 0.68,0.29 0.71,0.67 l 0.9,15.17 z m 96.96,0.79 -44.35,8.34 -0.71,-19.01 c -0.03,-0.86 -0.53,-1.63 -1.3,-2.02 l -3.34,-1.67 c -0.5,-0.25 -0.8,-0.77 -0.76,-1.33 l 5.23,-82.24 c 9.5,1.01 26.53,2.83 37,3.95 l 8.23,13.93 z"
   id="path315" />

		<path
   d="m 642.73,340.78 -34.13,1.6 c -1.39,0.06 -2.51,1.15 -2.63,2.53 l -3.53,42.04 c -0.13,1.52 1,2.85 2.52,2.99 l 35.42,3.1 c 0.47,0.04 0.87,-0.32 0.9,-0.78 l 2.17,-47.35 0.15,-3.25 c 0.01,-0.51 -0.39,-0.91 -0.87,-0.88 z m -2,46.5 -33.15,-1.88 c -0.42,-5.5 -0.53,-12.01 0.09,-19.29 0.61,-7.1 1.78,-13.36 3.09,-18.62 l 31.61,-1.73 z"
   id="path317" />

		<polygon
   points="666.01,380.65 670.73,378.62 675.64,390.28 673.28,370.11 668.92,373.57 664.74,363.21 660.38,366.53 "
   id="polygon319" />

		<path
   d="m 686.55,393.53 c -4.34,-1.65 -9.34,0.2 -11.63,4.3 l 0.02,0.01 c -0.77,0.21 -1.34,0.9 -1.37,1.75 -0.15,-0.04 -0.31,-0.07 -0.48,-0.07 -1.02,0 -1.85,0.85 -1.85,1.9 0,0.97 0.72,1.77 1.63,1.88 -0.02,0.11 -0.03,0.22 -0.03,0.33 0,1.05 0.83,1.9 1.85,1.9 0.08,0 0.16,-0.01 0.24,-0.02 0.31,0.59 0.91,0.99 1.61,0.99 0.59,0 1.11,-0.29 1.45,-0.73 0.31,0.24 0.69,0.39 1.11,0.39 1.02,0 1.85,-0.85 1.85,-1.9 0,-0.05 -0.01,-0.1 -0.01,-0.14 0.67,-0.28 1.15,-0.96 1.15,-1.76 0,-0.25 -0.05,-0.49 -0.14,-0.71 0.54,-0.36 1.24,-0.43 1.83,-0.14 0.62,0.3 1,0.96 1.01,1.67 -0.72,0.21 -1.27,0.86 -1.34,1.67 -0.08,0.97 0.57,1.82 1.48,2 -0.03,0.11 -0.05,0.21 -0.06,0.32 -0.08,1.05 0.67,1.96 1.69,2.04 0.08,0.01 0.16,0 0.24,-0.01 0.27,0.61 0.83,1.06 1.53,1.11 0.59,0.05 1.13,-0.2 1.5,-0.61 0.29,0.27 0.66,0.45 1.08,0.48 1.02,0.08 1.91,-0.7 2,-1.74 0,-0.05 0,-0.1 0,-0.14 0.69,-0.23 1.22,-0.87 1.29,-1.66 0.08,-0.93 -0.52,-1.76 -1.37,-1.98 -0.03,-0.32 -0.14,-0.63 -0.32,-0.88 0.62,-4.4 -1.85,-8.69 -5.96,-10.25 z m -0.64,9.68 c -0.05,-0.02 -0.11,-0.03 -0.16,-0.05 -0.01,-1.07 -0.6,-2.06 -1.55,-2.53 -0.92,-0.45 -2,-0.34 -2.83,0.23 -0.23,-0.19 -0.51,-0.32 -0.82,-0.38 -0.04,-0.24 -0.13,-0.46 -0.26,-0.66 1.18,-1.19 2.99,-1.57 4.5,-0.9 1.15,0.51 1.96,1.55 2.24,2.77 -0.58,0.26 -1.03,0.82 -1.12,1.52 z m 3.46,-0.69 c -0.27,-0.51 -0.76,-0.88 -1.35,-0.96 -0.33,-1.55 -1.35,-2.87 -2.81,-3.52 -1.88,-0.84 -4.14,-0.38 -5.6,1.11 -0.25,-0.14 -0.54,-0.22 -0.85,-0.22 -0.18,0 -0.35,0.04 -0.51,0.09 1.54,-2.19 4.41,-3.17 6.97,-2.33 2.53,0.84 4.21,3.2 4.21,5.83 -0.03,0 -0.05,0 -0.06,0 z m 2.24,0.55 c -0.15,-0.06 -0.31,-0.1 -0.48,-0.11 -0.2,-0.02 -0.39,0.01 -0.57,0.05 -0.06,-0.05 -0.12,-0.1 -0.18,-0.15 0.15,-3.19 -1.83,-6.09 -4.87,-7.1 -3.08,-1.02 -6.42,0.17 -8.19,2.88 -0.09,-0.01 -0.17,-0.02 -0.26,-0.02 -0.03,0 -0.07,0.01 -0.1,0.01 -0.22,-0.34 -0.55,-0.61 -0.93,-0.75 2.15,-3.39 6.44,-4.88 10.18,-3.45 3.51,1.34 5.69,4.9 5.4,8.64 z"
   id="path321" />

		<path
   d="m 690.54,353.88 c -1.64,-1.08 -3.9,-0.93 -5.51,0.42 v 0 c -0.95,-1.87 -2.97,-2.89 -4.91,-2.54 -2.23,0.4 -3.9,2.55 -3.72,5 0,0 -0.73,3.27 5.81,11.35 v 0 c 0,0 0,0 0,0 0,0 0,0 0,0 v 0 c 9.18,-4.87 9.79,-8.16 9.79,-8.16 1.13,-2.19 0.43,-4.83 -1.46,-6.07 z"
   id="path323" />

		<polygon
   points="658.58,424.41 661.29,423.96 661.27,422.49 658.56,422.94 "
   id="polygon325" />

		<polygon
   points="662.24,423.77 664.95,423.32 664.93,421.85 662.23,422.3 "
   id="polygon327" />

		<polygon
   points="665.91,423.16 668.61,422.71 668.59,421.24 665.89,421.69 "
   id="polygon329" />

		<polygon
   points="669.57,422.56 672.27,422.11 672.25,420.64 669.55,421.09 "
   id="polygon331" />

		<polygon
   points="673.23,421.96 675.94,421.51 675.92,420.04 673.21,420.49 "
   id="polygon333" />

		<polygon
   points="676.89,421.36 679.6,420.91 679.58,419.44 676.87,419.89 "
   id="polygon335" />

		<polygon
   points="680.56,420.71 683.26,420.26 683.24,418.79 680.54,419.24 "
   id="polygon337" />

		<polygon
   points="684.22,420.09 686.92,419.64 686.9,418.16 684.2,418.61 "
   id="polygon339" />

		<polygon
   points="687.88,419.45 690.59,419 690.57,417.53 687.86,417.97 "
   id="polygon341" />

		<polygon
   points="694.25,418.34 694.23,416.87 691.53,417.32 691.55,418.79 "
   id="polygon343" />

		<polygon
   points="697.89,416.24 695.19,416.69 695.21,418.16 697.91,417.72 "
   id="polygon345" />

		<polygon
   points="658.58,427.64 661.29,427.19 661.27,425.72 658.56,426.17 "
   id="polygon347" />

		<polygon
   points="662.24,427 664.95,426.55 664.93,425.08 662.23,425.53 "
   id="polygon349" />

		<polygon
   points="665.91,426.39 668.61,425.95 668.59,424.47 665.89,424.92 "
   id="polygon351" />

		<polygon
   points="669.57,425.79 672.27,425.35 672.25,423.87 669.55,424.32 "
   id="polygon353" />

		<polygon
   points="673.23,425.19 675.94,424.74 675.92,423.27 673.21,423.72 "
   id="polygon355" />

		<polygon
   points="676.89,424.59 679.6,424.14 679.58,422.67 676.87,423.12 "
   id="polygon357" />

		<polygon
   points="680.56,423.94 683.26,423.49 683.24,422.02 680.54,422.47 "
   id="polygon359" />

		<polygon
   points="684.22,423.32 686.92,422.87 686.9,421.39 684.2,421.84 "
   id="polygon361" />

		<polygon
   points="687.88,422.68 690.59,422.23 690.57,420.76 687.86,421.2 "
   id="polygon363" />

		<polygon
   points="691.55,422.02 694.25,421.57 694.23,420.1 691.53,420.55 "
   id="polygon365" />

		<polygon
   points="697.89,419.47 695.19,419.92 695.21,421.39 697.91,420.95 "
   id="polygon367" />

		<polygon
   points="658.58,430.87 661.29,430.42 661.27,428.95 658.56,429.4 "
   id="polygon369" />

		<polygon
   points="662.24,430.23 664.95,429.78 664.93,428.31 662.23,428.76 "
   id="polygon371" />

		<polygon
   points="665.91,429.62 668.61,429.18 668.59,427.7 665.89,428.15 "
   id="polygon373" />

		<polygon
   points="669.57,429.02 672.27,428.58 672.25,427.1 669.55,427.55 "
   id="polygon375" />

		<polygon
   points="673.23,428.42 675.94,427.97 675.92,426.5 673.21,426.95 "
   id="polygon377" />

		<polygon
   points="676.89,427.82 679.6,427.37 679.58,425.9 676.87,426.35 "
   id="polygon379" />

		<polygon
   points="680.56,427.17 683.26,426.72 683.24,425.25 680.54,425.7 "
   id="polygon381" />

		<polygon
   points="684.22,426.55 686.92,426.1 686.9,424.62 684.2,425.07 "
   id="polygon383" />

		<polygon
   points="687.88,425.91 690.59,425.46 690.57,423.99 687.86,424.44 "
   id="polygon385" />

		<polygon
   points="691.55,425.25 694.25,424.8 694.23,423.33 691.53,423.78 "
   id="polygon387" />

		<polygon
   points="697.89,422.7 695.19,423.15 695.21,424.62 697.91,424.18 "
   id="polygon389" />

		<polygon
   points="658.58,434.1 661.29,433.65 661.27,432.18 658.56,432.63 "
   id="polygon391" />

		<polygon
   points="662.24,433.46 664.95,433.01 664.93,431.54 662.23,431.99 "
   id="polygon393" />

		<polygon
   points="665.91,432.85 668.61,432.41 668.59,430.93 665.89,431.38 "
   id="polygon395" />

		<polygon
   points="669.57,432.25 672.27,431.81 672.25,430.33 669.55,430.78 "
   id="polygon397" />

		<polygon
   points="673.23,431.65 675.94,431.2 675.92,429.73 673.21,430.18 "
   id="polygon399" />

		<polygon
   points="676.89,431.05 679.6,430.6 679.58,429.13 676.87,429.58 "
   id="polygon401" />

		<polygon
   points="680.56,430.4 683.26,429.95 683.24,428.48 680.54,428.93 "
   id="polygon403" />

		<polygon
   points="684.22,429.78 686.92,429.33 686.9,427.86 684.2,428.3 "
   id="polygon405" />

		<polygon
   points="687.88,429.14 690.59,428.69 690.57,427.22 687.86,427.67 "
   id="polygon407" />

		<polygon
   points="691.55,428.48 694.25,428.03 694.23,426.56 691.53,427.01 "
   id="polygon409" />

		<polygon
   points="697.89,425.93 695.19,426.38 695.21,427.86 697.91,427.41 "
   id="polygon411" />

	</g>

</g>
  </g>
</svg>
